<svg width="131" height="87" viewBox="0 0 131 87" fill="none" xmlns="http://www.w3.org/2000/svg">
<path d="M60.1328 87H0.25V74.4023L21.7539 52.6641C28.1211 46.1406 32.2812 41.6289 34.2344 39.1289C36.1875 36.5898 37.5938 34.2461 38.4531 32.0977C39.3125 29.9492 39.7422 27.7227 39.7422 25.418C39.7422 21.9805 38.7852 19.4219 36.8711 17.7422C34.9961 16.0625 32.4766 15.2227 29.3125 15.2227C25.9922 15.2227 22.7695 15.9844 19.6445 17.5078C16.5195 19.0312 13.2578 21.1992 9.85938 24.0117L0.015625 12.3516C4.23438 8.75781 7.73047 6.21875 10.5039 4.73438C13.2773 3.25 16.3047 2.11719 19.5859 1.33594C22.8672 0.515625 26.5391 0.105469 30.6016 0.105469C35.9531 0.105469 40.6797 1.08203 44.7812 3.03516C48.8828 4.98828 52.0664 7.72266 54.332 11.2383C56.5977 14.7539 57.7305 18.7773 57.7305 23.3086C57.7305 27.2539 57.0273 30.9648 55.6211 34.4414C54.2539 37.8789 52.1055 41.4141 49.1758 45.0469C46.2852 48.6797 41.168 53.8555 33.8242 60.5742L22.8086 70.9453V71.7656H60.1328V87ZM130.621 69.2461H120.309V87H102.613V69.2461H66.0508V56.6484L103.609 1.33594H120.309V55.1836H130.621V69.2461ZM102.613 55.1836V40.6523C102.613 38.2305 102.711 34.7148 102.906 30.1055C103.102 25.4961 103.258 22.8203 103.375 22.0781H102.906C101.461 25.2813 99.7227 28.4062 97.6914 31.4531L81.9883 55.1836H102.613Z" fill="#D22856"/>
</svg>
